<svg width="500" height="500" viewBox="0 0 500 500" fill="none" xmlns="http://www.w3.org/2000/svg">
<path d="M268.919 232.65C262.381 225.431 255.92 211.547 245.373 211.317C235.796 211.113 227.223 218.715 223.205 225.721C220.03 231.263 216.471 235.417 212.164 239.614C205.064 246.535 197.283 251.847 187.298 255.508C181.994 257.449 175.286 259.168 169.616 259.057C160.865 258.887 152.803 252.051 149.526 243.598C145.431 232.608 146.614 223.005 157.068 212.926C161.129 209.01 166.662 205.392 170.868 202.089C172.477 200.719 173.43 199.28 172.809 198.165C171.642 196.053 168.203 195.679 163.181 195.211C154.557 194.393 145.474 191.014 138.851 182.186C132.594 173.843 131.793 163.032 134.39 153.744C136.739 145.572 145.082 136.889 153.042 134.292C169.693 128.206 185.323 135.288 196.219 145.64C200.195 149.42 207.039 153.251 207.763 147.973C208.325 145.351 206.154 139.204 204.323 134.999C200.859 127.039 199.684 120.714 199.284 114.704C197.913 100.445 206.86 88.2375 219.859 81.8443C229.351 76.8812 245.219 76.8983 255.256 80.8908C264.254 84.3215 270.86 89.242 274.632 96.5801C282.395 111.716 277.926 125.839 273.491 141.23C272.291 145.402 274.078 149.054 277.313 147.956C279.331 147.147 282.353 144.006 284.49 140.541C286.788 136.821 288.959 133.816 291.708 130.657C306.827 113.265 320.363 109.86 335.72 114.066C344.829 116.56 352.125 120.476 357.93 128.486C362.783 135.178 366.401 146.134 366.988 152.57C367.976 163.372 364.707 170.855 360.782 176.533C358.475 179.862 356.747 182.143 351.912 185.966C348.49 188.673 344.165 189.609 340.649 190.597C335.243 192.103 334.256 191.788 329.557 192.069C322.014 192.521 320.039 194.649 323.913 198.726C326.671 201.629 330.442 202.957 333.72 205.103C339.874 209.129 344.514 215.676 345.978 222.912C347.042 228.215 346.974 235.664 344.923 240.746C343.552 244.151 341.705 247.42 339.466 250.332C334.426 256.87 327.505 260.82 319.265 261.492C302.886 262.369 290.976 253.447 280.335 244.032C280.335 244.032 272.588 236.907 268.877 232.65H268.919ZM245.568 187.558C250.021 188.043 255.401 187.694 258.023 183.991C259.938 181.249 258.397 177.759 255.827 176.04C251.451 172.839 243.806 172.643 238.903 175.359C230.032 180.943 237.958 186.97 245.373 187.541L245.568 187.566V187.558Z" fill="#BDF3FF"></path>
<path d="M258.574 358.531C256.906 355.483 255.484 352.248 254.377 348.92C250.845 339.368 250.828 326.88 245.839 325.935C240.621 326.684 236.492 336.797 234.942 341.573C230.005 357.586 233.393 380.451 237.113 396.685C238.501 402.806 241.191 409.404 238.884 415.584C236.1 422.692 226.6 423.101 220.641 419.611C217.636 417.951 215.312 415.456 213.379 412.485C194.217 379.328 201.47 335.988 217.466 302.379C218.768 299.017 221.696 292.462 217.738 290.87C213.303 290.325 207.029 296.744 202.227 300.626C196.668 305.495 191.424 311.982 186.308 317.115C180.434 322.802 177.327 326.233 171.028 331.391C153.721 345.94 144.748 329.084 152.921 314.893C155.338 310.56 159.075 306.755 162.43 303.384C186.121 278.875 222.982 258.274 232.678 233.646C235.956 225.329 245.924 222.665 251.73 231.646C254.744 236.609 255.11 243.853 258.728 248.527C264.457 255.916 272.467 261.569 279.567 267.051C285.194 271.546 292.796 274.346 299.658 277.258C305.744 279.939 312.027 282.195 318.224 284.57C327.546 288.308 337.506 291.721 344.98 298.557C348.522 301.988 351.22 307.3 350.071 312.161C346.725 326.011 313.951 318.648 299.275 310.262C292.03 306.423 283.824 298.685 276.528 296.003C270.671 294.165 270.373 302.873 270.509 306.551C270.918 317.362 275.098 331.809 280.844 340.509C286.148 348.545 295.197 353.636 304.808 353.738C314.223 353.84 324.771 350.597 332.117 358.463C335.957 362.583 334.748 368.057 330.585 372.177C324.132 378.919 313.746 381.303 304.68 383.107C279.78 388.717 269.088 377.455 258.659 358.709L258.566 358.539L258.574 358.531Z" fill="#BDF3FF"></path>
</svg>